<svg width="23" height="30" viewBox="0 0 23 30" fill="none" xmlns="http://www.w3.org/2000/svg">
<path d="M15.7927 25.2627V27.2365C15.7927 28.7524 14.5453 29.9999 13.0294 29.9999H9.08172C7.7553 29.9999 6.31836 28.9893 6.31836 26.7786V25.2627H15.7927Z" fill="#E1E5F0"/>
<path d="M18.0191 2.46117C15.4295 0.361019 12.0187 -0.460093 8.68686 0.250484C4.50235 1.11897 1.10737 4.52974 0.238888 8.71425C-0.645386 13.0093 0.965256 17.2728 4.40761 19.8782C5.33925 20.573 5.98667 21.6468 6.20774 22.8942V22.91C6.23932 22.8942 6.28669 22.8942 6.31827 22.8942H15.7926C15.8242 22.8942 15.84 22.8942 15.8716 22.91V22.8942C16.0927 21.6941 16.8032 20.5888 17.8928 19.7361C20.5614 17.6202 22.1089 14.462 22.1089 11.0513C22.1089 7.70365 20.6246 4.57711 18.0191 2.46117ZM16.9769 11.8408C16.3295 11.8408 15.7926 11.3039 15.7926 10.6565C15.7926 8.25632 13.8504 6.31408 11.4502 6.31408C10.8028 6.31408 10.2659 5.7772 10.2659 5.12978C10.2659 4.48237 10.8028 3.94549 11.4502 3.94549C15.1452 3.94549 18.1612 6.96149 18.1612 10.6565C18.1612 11.3039 17.6243 11.8408 16.9769 11.8408Z" fill="#CBD2E5"/>
</svg>
