<svg width="101" height="62" viewBox="0 0 101 62" fill="none" xmlns="http://www.w3.org/2000/svg">
<path d="M65.1154 21.7869L61.9896 24.9127C61.8766 25.0257 61.7636 25.1198 61.6506 25.214L50.4277 5.76212C49.8816 4.80177 48.9589 4.70762 48.6011 4.70762C48.2433 4.70762 47.3206 4.80177 46.7745 5.76212L39.9767 17.55C37.3781 17.8136 34.949 18.7928 32.8965 20.3934L42.7072 3.40831C43.9311 1.28047 46.1531 0 48.6011 0C51.0679 0 53.2711 1.28047 54.5139 3.40831L65.1154 21.7869Z" fill="#F2BC46"/>
<path d="M67.6209 26.1177L67.2255 26.3437L63.8737 28.2832L63.5536 28.4715L62.6309 26.8709C62.8757 26.6826 63.1204 26.4755 63.3464 26.2495L66.1145 23.4814L67.0937 25.1762L67.5833 26.0236L67.6209 26.1177Z" fill="#F2BC46"/>
<path d="M51.746 24.819C50.9928 24.3105 43.8749 19.7724 36.9264 25.6287C36.7005 25.7981 36.4933 25.9864 36.2862 26.1936L26.7203 35.7595C25.7976 36.6822 24.31 36.6822 23.3873 35.7595C22.4646 34.8368 22.4646 33.3492 23.3873 32.4265L32.9532 22.8606C35.194 20.6198 38.1881 19.377 41.3516 19.377C44.3268 19.377 47.1326 20.4691 49.3169 22.4463L49.3357 22.4275L51.746 24.819Z" fill="#EA55AC"/>
<path d="M68.0149 28.2267L66.6591 29.5825C64.4183 31.8233 61.4242 33.0661 58.2607 33.0661C55.0784 33.0661 52.1031 31.8233 49.8435 29.5825L48.45 28.189L46.454 26.193C43.8554 23.5944 39.7504 23.4061 36.9258 25.6281C43.8742 19.7718 50.9921 24.31 51.7454 24.8184L53.1765 26.2495C53.8355 26.9086 54.5888 27.417 55.3796 27.7559C56.5848 28.5092 62.121 31.635 68.0149 28.2267Z" fill="url(#paint0_linear_61_318)"/>
<path d="M76.2249 16.6842C77.1476 17.6069 77.1476 19.0945 76.2249 20.0172L68.0149 28.2273C62.1209 31.6356 56.5848 28.5097 55.3984 27.7565C58.0347 28.9052 61.1982 28.3968 63.3449 26.2501L72.9108 16.6842C73.8146 15.7615 75.3023 15.7615 76.2249 16.6842Z" fill="#EA55AC"/>
<path d="M76.2249 16.6842C77.1476 17.6069 77.1476 19.0945 76.2249 20.0172L68.0149 28.2273C62.1209 31.6356 56.5848 28.5097 55.3984 27.7565C58.0347 28.9052 61.1982 28.3968 63.3449 26.2501L72.9108 16.6842C73.8146 15.7615 75.3023 15.7615 76.2249 16.6842Z" fill="url(#paint1_linear_61_318)"/>
<path d="M2.73042 55.2479H0V46.5671C0 45.8327 0.0941524 45.1548 0.282457 44.5522C0.470762 43.9497 0.790882 43.4412 1.20515 43.0081C1.61942 42.575 2.1655 42.2549 2.82457 42.0101C3.48364 41.7842 4.29335 41.6523 5.2537 41.6523C6.21406 41.6523 7.02377 41.7653 7.70166 42.0101C8.37956 42.2361 8.92565 42.575 9.35875 43.0081C9.79185 43.4412 10.0931 43.9497 10.3003 44.5522C10.4886 45.1548 10.5827 45.8327 10.5827 46.5671V55.2479H7.79582V50.5403H2.73042V55.2479ZM7.79582 48.5631V46.4165C7.79582 45.5691 7.60751 44.91 7.2309 44.4016C6.85429 43.912 6.19523 43.6484 5.2537 43.6484C4.31218 43.6484 3.65311 43.8932 3.2765 44.4016C2.89989 44.8912 2.71159 45.5691 2.71159 46.4165V48.5631H7.79582Z" fill="white"/>
<path d="M16.2689 40.5605V55.2483H13.5762V40.5605H16.2689Z" fill="white"/>
<path d="M19.263 46.0592C19.8844 45.852 20.5811 45.6637 21.3908 45.5131C22.1817 45.3624 22.9537 45.2871 23.707 45.2871C24.3849 45.2871 25.0251 45.3813 25.6088 45.5507C26.1926 45.7202 26.701 46.0027 27.1153 46.3981C27.5295 46.7935 27.8685 47.302 28.1133 47.9234C28.3581 48.5448 28.4711 49.3168 28.4711 50.2395C28.4711 51.2375 28.3581 52.0849 28.1133 52.744C27.8873 53.4219 27.5672 53.9491 27.1529 54.3446C26.7387 54.74 26.2679 55.0225 25.7218 55.1919C25.1757 55.3614 24.5732 55.4367 23.9518 55.4367C23.6505 55.4367 23.3115 55.4179 22.9349 55.3614C22.5583 55.3238 22.2382 55.2673 21.9369 55.2108V58.9957H19.2441V46.0592H19.263ZM21.9557 53.2901C22.257 53.3654 22.5583 53.4219 22.8219 53.4595C23.1044 53.516 23.3868 53.5349 23.6881 53.5349C24.0083 53.5349 24.2907 53.4784 24.5355 53.3842C24.7803 53.2901 24.9874 53.1018 25.1569 52.857C25.3264 52.6122 25.4582 52.2732 25.5335 51.8589C25.6277 51.4447 25.6653 50.8986 25.6653 50.2583C25.6653 49.6369 25.6088 49.1473 25.5335 48.7519C25.4394 48.3565 25.3076 48.0552 25.1381 47.8292C24.9686 47.6033 24.7615 47.4526 24.4978 47.3585C24.253 47.2643 23.9706 47.2266 23.6693 47.2266C23.4057 47.2266 23.1044 47.2455 22.7654 47.302C22.4453 47.3585 22.1629 47.3961 21.9557 47.4526V53.2901Z" fill="white"/>
<path d="M30.8262 40.5605H33.5189V45.5318C33.8767 45.4565 34.2157 45.4 34.5734 45.3623C34.9312 45.3247 35.289 45.287 35.6279 45.287C36.2305 45.287 36.7954 45.3435 37.3039 45.4753C37.8123 45.5883 38.2454 45.7954 38.622 46.059C38.9986 46.3415 39.2811 46.6993 39.4882 47.1512C39.6953 47.6031 39.8083 48.1681 39.8083 48.8271V55.2483H37.1155V48.9401C37.1155 48.281 36.9461 47.8291 36.5883 47.5843C36.2305 47.3395 35.7974 47.2265 35.2702 47.2265C35.0065 47.2265 34.7052 47.2454 34.3663 47.3019C34.0462 47.3584 33.7637 47.396 33.5378 47.4525V55.2483H30.845V40.5605H30.8262Z" fill="white"/>
<path d="M42.7648 45.6823C43.1979 45.5693 43.7251 45.494 44.2901 45.4187C44.8738 45.3433 45.4199 45.3057 45.966 45.3057C46.5874 45.3057 47.1711 45.3622 47.6984 45.4751C48.2445 45.5881 48.7152 45.7576 49.1107 46.0212C49.5061 46.2848 49.8262 46.605 50.071 47.0192C50.297 47.4335 50.4288 47.9419 50.4288 48.5445V54.7586C50.184 54.8339 49.9015 54.928 49.5814 55.0034C49.2613 55.0787 48.9035 55.154 48.5269 55.2293C48.1503 55.3046 47.7549 55.3611 47.3594 55.3988C46.9452 55.4365 46.5309 55.4741 46.1166 55.4741C45.4764 55.4741 44.8926 55.4176 44.3842 55.3235C43.8758 55.2293 43.4239 55.041 43.0661 54.7962C42.7083 54.5326 42.4258 54.2125 42.2375 53.7982C42.0492 53.3839 41.9551 52.8567 41.9551 52.2353C41.9551 51.6515 42.0492 51.1808 42.2564 50.8042C42.4635 50.4276 42.7271 50.1074 43.0849 49.8815C43.4427 49.6555 43.857 49.486 44.3465 49.3919C44.8361 49.2977 45.3446 49.2601 45.9095 49.2601C46.2673 49.2601 46.6062 49.2789 46.9075 49.2977C47.2088 49.3166 47.4912 49.373 47.7549 49.4107V48.6387C47.7549 48.0926 47.5854 47.716 47.2464 47.5277C46.9075 47.3394 46.4367 47.2452 45.8342 47.2452C45.3634 47.2452 44.8738 47.2829 44.3277 47.3394C43.8005 47.4147 43.3297 47.49 42.9343 47.5842L42.7648 45.6823ZM47.736 51.049C47.5101 51.0113 47.2653 50.9736 47.0205 50.9548C46.7757 50.936 46.5309 50.9171 46.2861 50.9171C45.7023 50.9171 45.2692 51.0113 44.9491 51.1996C44.629 51.3879 44.4784 51.7645 44.4784 52.3483C44.4784 52.8755 44.629 53.2521 44.9115 53.4593C45.2127 53.6664 45.627 53.7606 46.1919 53.7606C46.4932 53.7606 46.7568 53.7417 47.0205 53.7041C47.2841 53.6664 47.5101 53.6287 47.7172 53.5722V51.049H47.736Z" fill="white"/>
<path d="M55.437 55.2485L51.8027 41.8789H54.665L57.1129 52.1415L59.768 44.3645H62.1783L64.8334 52.2545C65.436 50.9175 65.9632 49.3923 66.4152 47.7164C66.8671 46.0216 67.2249 44.0821 67.5074 41.8977H70.1248C69.7482 44.4775 69.2209 46.869 68.5619 49.0533C67.9028 51.2377 67.0931 53.309 66.1139 55.2862H63.553L60.9355 47.4151L58.1486 55.2862H55.437V55.2485Z" fill="white"/>
<path d="M71.7062 45.6823C72.1393 45.5693 72.6665 45.494 73.2315 45.4187C73.8152 45.3433 74.3613 45.3057 74.9074 45.3057C75.5288 45.3057 76.1125 45.3622 76.6398 45.4751C77.1859 45.5881 77.6566 45.7576 78.0521 46.0212C78.4475 46.2848 78.7676 46.605 79.0124 47.0192C79.2384 47.4335 79.3702 47.9419 79.3702 48.5445V54.7586C79.1254 54.8339 78.8429 54.928 78.5228 55.0034C78.2027 55.0787 77.8449 55.154 77.4683 55.2293C77.0917 55.3046 76.6963 55.3611 76.3008 55.3988C75.8866 55.4365 75.4723 55.4741 75.058 55.4741C74.4178 55.4741 73.834 55.4176 73.3256 55.3235C72.8172 55.2293 72.3653 55.041 72.0075 54.7962C71.6497 54.5326 71.3672 54.2125 71.1789 53.7982C70.9906 53.3839 70.8965 52.8567 70.8965 52.2353C70.8965 51.6515 70.9906 51.1808 71.1978 50.8042C71.4049 50.4276 71.6685 50.1074 72.0263 49.8815C72.3841 49.6555 72.7984 49.486 73.2879 49.3919C73.7775 49.2977 74.286 49.2601 74.8509 49.2601C75.2087 49.2601 75.5476 49.2789 75.8489 49.2977C76.1502 49.3166 76.4326 49.373 76.6963 49.4107V48.6387C76.6963 48.0926 76.5268 47.716 76.1878 47.5277C75.8489 47.3394 75.3781 47.2452 74.7756 47.2452C74.3048 47.2452 73.8152 47.2829 73.2691 47.3394C72.7419 47.4147 72.2711 47.49 71.8757 47.5842L71.7062 45.6823ZM76.6774 51.049C76.4515 51.0113 76.2067 50.9736 75.9619 50.9548C75.7171 50.936 75.4723 50.9171 75.2275 50.9171C74.6437 50.9171 74.2106 51.0113 73.8905 51.1996C73.5704 51.3879 73.4198 51.7645 73.4198 52.3483C73.4198 52.8755 73.5704 53.2521 73.8529 53.4593C74.1541 53.6664 74.5684 53.7606 75.1333 53.7606C75.4346 53.7606 75.6982 53.7417 75.9619 53.7041C76.2255 53.6664 76.4515 53.6287 76.6586 53.5722V51.049H76.6774Z" fill="white"/>
<path d="M80.4062 45.513H83.1932L85.6223 52.9322C85.8294 52.4426 86.0554 51.953 86.2813 51.4069C86.5073 50.8797 86.7144 50.3147 86.9404 49.7122C87.1476 49.1096 87.3547 48.4505 87.543 47.7538C87.7313 47.0571 87.8819 46.3039 88.0138 45.4941H90.4806C90.2169 47.2265 89.7838 48.8836 89.1812 50.4842C88.5598 52.0848 87.8254 53.6666 86.9404 55.2295H83.9464L80.4062 45.513Z" fill="white"/>
<path d="M94.2653 51.1243C94.2841 51.5574 94.3406 51.9152 94.4348 52.2164C94.5289 52.5177 94.6984 52.7625 94.9055 52.9697C95.1126 53.158 95.3951 53.3086 95.734 53.4028C96.073 53.4969 96.5061 53.5346 97.0334 53.5346C97.2405 53.5346 97.4853 53.5157 97.7301 53.4969C97.9937 53.4781 98.2385 53.4404 98.5021 53.4028C98.7658 53.3651 98.9917 53.3274 99.2177 53.271C99.4436 53.2333 99.632 53.1768 99.7638 53.1391L100.009 54.9845C99.5943 55.1163 99.0859 55.2293 98.4833 55.3235C97.8807 55.4176 97.2781 55.4553 96.6379 55.4553C95.8659 55.4553 95.1691 55.38 94.5289 55.2293C93.8887 55.0787 93.3426 54.8151 92.8718 54.4196C92.4011 54.043 92.0433 53.5158 91.7985 52.8567C91.5349 52.1976 91.4219 51.3691 91.4219 50.3711C91.4219 49.4107 91.5349 48.601 91.7608 47.9419C91.9868 47.2829 92.2881 46.7556 92.7023 46.379C93.1166 45.9836 93.6062 45.7199 94.1711 45.5505C94.7549 45.381 95.3951 45.3057 96.1107 45.3057C96.8262 45.3057 97.4476 45.3998 97.9749 45.5881C98.4833 45.7764 98.9164 46.0589 99.2365 46.4167C99.5566 46.7744 99.8014 47.2075 99.9521 47.716C100.103 48.2244 100.178 48.8081 100.178 49.4484V51.1243H94.2653ZM97.6924 49.5425C97.6924 48.6951 97.5606 48.0737 97.3158 47.6595C97.071 47.2452 96.6379 47.0381 96.0353 47.0381C95.4139 47.0381 94.962 47.2452 94.7172 47.6783C94.4536 48.0926 94.3218 48.7328 94.3029 49.5614H97.6924V49.5425Z" fill="white"/>
<path d="M25.3648 58.1675H24.1973V57.7344H27.0595V58.1675H25.8732V61.6135H25.3648V58.1675Z" fill="#878787"/>
<path d="M32.0683 59.8054H30.5619V61.1989H32.2378V61.6132H30.0723V57.7529H32.1624V58.1672H30.5807V59.3912H32.0871V59.8054H32.0683Z" fill="#878787"/>
<path d="M38.1687 61.4815C37.9804 61.5756 37.6226 61.6698 37.1519 61.6698C36.0597 61.6698 35.25 60.9731 35.25 59.7114C35.25 58.5063 36.0785 57.6777 37.2649 57.6777C37.7544 57.6777 38.0557 57.7719 38.1876 57.8472L38.0746 58.2615C37.8863 58.1673 37.6226 58.092 37.3025 58.092C36.3987 58.092 35.7961 58.6758 35.7961 59.6926C35.7961 60.6341 36.3422 61.2555 37.2837 61.2555C37.585 61.2555 37.9051 61.199 38.0934 61.086L38.1687 61.4815Z" fill="#878787"/>
<path d="M41.8783 57.7529V59.3723H43.7425V57.7529H44.2509V61.6132H43.7425V59.8054H41.8783V61.6132H41.3887V57.7529H41.8783Z" fill="#878787"/>
<path d="M47.6973 61.6132V57.7529H48.2433L49.4862 59.7113C49.7686 60.1632 49.9946 60.5775 50.1829 60.9729H50.2017C50.1641 60.4645 50.1452 59.9937 50.1452 59.3912V57.7718H50.616V61.632H50.1076L48.8836 59.6736C48.62 59.2405 48.3563 58.8074 48.168 58.3743H48.1492C48.1869 58.8639 48.1869 59.3347 48.1869 59.9749V61.632H47.6973V61.6132Z" fill="#878787"/>
<path d="M57.3592 59.6361C57.3592 60.9731 56.5495 61.6698 55.5703 61.6698C54.5535 61.6698 53.8379 60.8789 53.8379 59.7114C53.8379 58.4874 54.6099 57.6777 55.6268 57.6777C56.6625 57.6777 57.3592 58.4874 57.3592 59.6361ZM54.3463 59.7114C54.3463 60.54 54.7982 61.2744 55.5703 61.2744C56.3612 61.2744 56.8131 60.54 56.8131 59.6738C56.8131 58.9017 56.4177 58.1108 55.5891 58.1108C54.7606 58.092 54.3463 58.8452 54.3463 59.7114Z" fill="#878787"/>
<path d="M60.5781 57.7529H61.0677V61.1989H62.7248V61.6132H60.5781V57.7529Z" fill="#878787"/>
<path d="M68.9393 59.6361C68.9393 60.9731 68.1296 61.6698 67.1504 61.6698C66.1335 61.6698 65.418 60.8789 65.418 59.7114C65.418 58.4874 66.19 57.6777 67.2069 57.6777C68.2614 57.6777 68.9393 58.4874 68.9393 59.6361ZM65.9452 59.7114C65.9452 60.54 66.3972 61.2744 67.1692 61.2744C67.9601 61.2744 68.412 60.54 68.412 59.6738C68.412 58.9017 68.0166 58.1108 67.188 58.1108C66.3595 58.092 65.9452 58.8452 65.9452 59.7114Z" fill="#878787"/>
<path d="M75.1159 61.4443C74.89 61.5196 74.4569 61.6514 73.9296 61.6514C73.3459 61.6514 72.8563 61.5007 72.4797 61.143C72.1407 60.8229 71.9336 60.3144 71.9336 59.7118C71.9336 58.5632 72.7245 57.7158 74.0238 57.7158C74.4757 57.7158 74.8146 57.81 74.9841 57.8853L74.8711 58.2996C74.664 58.2054 74.4004 58.1301 74.0238 58.1301C73.0822 58.1301 72.4608 58.7138 72.4608 59.693C72.4608 60.6722 73.0446 61.2559 73.9484 61.2559C74.2686 61.2559 74.4945 61.2183 74.6075 61.1618V60.0131H73.8166V59.6177H75.0971V61.4443H75.1159Z" fill="#878787"/>
<path d="M78.9564 57.7529V61.6132H78.4668V57.7529H78.9564Z" fill="#878787"/>
<path d="M84.4179 59.8054H82.9115V61.1989H84.5874V61.6132H82.4219V57.7529H84.5121V58.1672H82.9303V59.3912H84.4367V59.8054H84.4179Z" fill="#878787"/>
<path d="M87.751 61.0107C87.9769 61.1425 88.297 61.2555 88.6548 61.2555C89.1632 61.2555 89.4645 60.9919 89.4645 60.5965C89.4645 60.2387 89.2574 60.0315 88.7301 59.8244C88.0899 59.5984 87.7133 59.2783 87.7133 58.7322C87.7133 58.1297 88.2029 57.6777 88.9561 57.6777C89.3515 57.6777 89.634 57.7719 89.8035 57.866L89.6717 58.2803C89.5398 58.205 89.2951 58.092 88.9373 58.092C88.41 58.092 88.2029 58.4121 88.2029 58.6757C88.2029 59.0335 88.4289 59.2218 88.9749 59.429C89.634 59.6738 89.9541 59.9939 89.9541 60.5588C89.9541 61.1614 89.521 61.6698 88.5983 61.6698C88.2217 61.6698 87.8263 61.5568 87.6191 61.425L87.751 61.0107Z" fill="#878787"/>
<defs>
<linearGradient id="paint0_linear_61_318" x1="58.1113" y1="34.4572" x2="44.3415" y2="16.0692" gradientUnits="userSpaceOnUse">
<stop offset="0.4338" stop-color="#EA55AC"/>
<stop offset="0.6486" stop-color="#CD4A96"/>
<stop offset="0.8628" stop-color="#B74284"/>
<stop offset="1" stop-color="#AF3F7E"/>
</linearGradient>
<linearGradient id="paint1_linear_61_318" x1="78.6482" y1="9.18761" x2="54.1873" y2="37.183" gradientUnits="userSpaceOnUse">
<stop offset="0.4338" stop-color="#EA55AC"/>
<stop offset="0.6486" stop-color="#CD4A96"/>
<stop offset="0.8628" stop-color="#B74284"/>
<stop offset="1" stop-color="#AF3F7E"/>
</linearGradient>
</defs>
</svg>
